<svg xmlns="http://www.w3.org/2000/svg" xmlns:xlink="http://www.w3.org/1999/xlink">

    <symbol id="clubs" viewBox="0 0 512 512">
        <path style="fill:#515262;" d="M406.477,208.065c-43.103-2.473-80.828,21.298-98.922,56.774
	c-3.994,7.832-10.654,13.986-19.001,16.748c-0.104,0.034-0.207,0.069-0.311,0.103c-7.097,2.339-14.188-3.711-13.076-11.101
	c2.443-16.235,6.284-32.014,11.375-47.222c2.765-8.259,8.81-14.887,16.576-18.829c35.575-18.058,59.429-55.837,56.953-99.012
	c-3.027-52.779-46.935-95.895-99.757-98.025C200.777,5.1,151.755,52.655,151.755,111.66c0,40.647,23.308,75.767,57.255,92.941
	c7.697,3.894,13.671,10.475,16.413,18.654c5.109,15.242,8.963,31.058,11.412,47.333c1.112,7.389-5.979,13.44-13.076,11.101
	c-0.106-0.035-0.214-0.07-0.32-0.106c-8.341-2.76-14.996-8.909-18.986-16.735c-18.092-35.481-55.819-59.257-98.927-56.784
	c-52.779,3.029-95.896,46.937-98.025,99.76C5.102,367.361,52.656,416.381,111.66,416.381c40.514,0,75.537-23.155,92.771-56.922
	c4.01-7.856,10.696-14.026,19.07-16.795c0.097-0.032,0.195-0.064,0.292-0.096c7.102-2.34,14.174,3.715,13.075,11.11
	c-7.359,49.523-27.659,94.815-57.349,132.352c-5.939,7.51-0.439,18.56,9.136,18.56h134.691c9.575,0,15.075-11.05,9.135-18.56
	c-29.689-37.537-49.989-82.828-57.348-132.352c-1.099-7.395,5.973-13.45,13.075-11.11c0.097,0.032,0.195,0.064,0.292,0.096
	c8.374,2.769,15.06,8.939,19.07,16.795c17.234,33.767,52.258,56.922,92.771,56.922c59.004,0,106.559-49.021,104.159-108.558
	C502.372,255.001,459.256,211.093,406.477,208.065z" />
        <g>
            <path style="fill:#464655;" d="M76.144,307.824c1.735-43.038,30.684-80.143,69.893-94.056c-12.577-4.41-26.237-6.521-40.511-5.702
		c-52.78,3.027-95.895,46.935-98.025,99.758C5.102,367.361,52.656,416.381,111.66,416.381c12.062,0,23.618-2.093,34.382-5.867
		C104.044,395.883,74.233,355.233,76.144,307.824z" />
            <path style="fill:#464655;" d="M232.972,179.955c-4.972-16.667-12.575-49.639-12.575-68.293c0-51.669,29.2-84.083,69.844-98.31
		c-9.474-3.365-19.516-5.429-29.928-5.849c-59.538-2.401-108.559,45.154-108.559,104.159c0,38.903,21.379,72.7,52.975,90.589l0,0
		c1.416,0.802,2.824,1.615,4.28,2.352c7.697,3.894,13.671,10.475,16.413,18.654c5.11,15.242,8.963,31.058,11.413,47.333
		c0.958,6.357-4.165,11.689-10.133,11.574l0.022,0.08c2.428,0.845,17.494,2.5,20.708-7.498
		C250.55,265.046,245.647,222.441,232.972,179.955z" />
            <path style="fill:#464655;" d="M406.477,208.065c-43.103-2.473-80.828,21.298-98.922,56.774
		c-3.994,7.832-10.654,13.986-19.001,16.748c-0.104,0.034-2.369,0.606-3.365,0.616l0,0c0,0,38.827,5.396,69.889-35.841
		c18.318-24.319,38.024-34.275,63.04-36.875C414.292,208.817,410.423,208.292,406.477,208.065z" />
            <path style="fill:#464655;" d="M406.477,416.195c-43.103,2.473-80.828-21.298-98.922-56.774
		c-3.994-7.832-10.654-13.986-19.001-16.748c-0.104-0.034-2.369-0.606-3.365-0.616l0,0c0,0,38.827-5.396,69.889,35.841
		c18.318,24.32,38.024,34.275,63.04,36.876C414.292,415.443,410.423,415.969,406.477,416.195z" />
            <path style="fill:#464655;" d="M230.264,486.03c13.241-33.303,26.63-126.488,3.944-140.687c0,0,3.144,5.079,2.66,8.336
		c-7.359,49.523-27.66,94.814-57.349,132.351c-5.939,7.51-0.438,18.56,9.136,18.56h50.744
		C229.824,504.589,226.726,494.927,230.264,486.03z" />
        </g>
        <g>
            <path style="fill:#2D2B29;" d="M511.908,307.379c-2.292-56.849-48.557-103.931-105.329-107.188
		c-44.364-2.543-86.081,21.398-106.275,60.997c-3.165,6.206-8.255,10.731-14.336,12.743c-1.125,0.372-2.261,0.74-3.408,1.103
		c2.299-16.636,6.153-33.086,11.498-49.053c2.03-6.064,6.492-11.102,12.565-14.184c39.722-20.16,63.74-61.914,61.19-106.372
		C364.556,48.654,317.475,2.389,260.627,0.096c-30.822-1.244-60.011,9.81-82.201,31.122c-22.199,21.323-34.425,50.012-34.425,80.785
		c0,42.406,23.571,80.671,61.515,99.864c5.978,3.024,10.379,7.998,12.393,14.007c5.364,16.002,9.229,32.49,11.534,49.161
		c-1.15-0.364-2.291-0.733-3.418-1.106c-6.075-2.01-11.161-6.53-14.32-12.728c-20.192-39.606-61.912-63.55-106.281-61.008
		C48.651,203.448,2.386,250.531,0.094,307.379c-1.242,30.818,9.811,60.011,31.122,82.199c21.322,22.199,50.012,34.425,80.785,34.425
		c42.234,0,80.43-23.434,99.681-61.156c3.179-6.228,8.294-10.77,14.405-12.791c1.114-0.368,2.241-0.733,3.378-1.093
		c-7.638,55.696-32.796,108.415-71.583,149.551c-2.19,2.323-2.79,5.727-1.524,8.658s4.152,4.83,7.345,4.83h28.299h128H348.3
		c3.193,0,6.08-1.898,7.345-4.83s0.666-6.335-1.524-8.658c-38.788-41.136-63.945-93.854-71.583-149.551
		c1.137,0.359,2.264,0.725,3.378,1.093c6.111,2.021,11.226,6.563,14.405,12.791c19.251,37.722,57.447,61.156,99.681,61.156
		c30.772,0,59.462-12.226,80.785-34.425C502.097,367.39,513.15,338.197,511.908,307.379z M469.246,378.494
		c-18.277,19.029-42.869,29.509-69.245,29.509c-36.19,0-68.925-20.089-85.43-52.429c-5.105-10.003-13.498-17.357-23.632-20.709
		c-5.029-1.663-10.282-3.243-15.614-4.698c-2.531-0.69-5.238-0.096-7.248,1.589c-2.009,1.686-3.065,4.249-2.825,6.861
		c2.97,32.333,11.313,63.654,24.796,93.093c10.608,23.161,24.187,44.72,40.478,64.293H320H192h-10.526
		c16.292-19.573,29.87-41.132,40.478-64.293c13.483-29.438,21.826-60.759,24.796-93.093c0.24-2.612-0.815-5.175-2.825-6.861
		s-4.718-2.278-7.248-1.589c-5.332,1.455-10.585,3.036-15.614,4.698c-10.134,3.352-18.527,10.706-23.632,20.709
		c-16.504,32.339-49.239,52.429-85.43,52.429c-26.376,0-50.968-10.479-69.245-29.509c-18.267-19.018-27.74-44.044-26.674-70.471
		c1.963-48.719,41.609-89.067,90.257-91.858c38.036-2.179,73.8,18.348,91.11,52.302c5.085,9.974,13.448,17.308,23.548,20.651
		c5.05,1.671,10.324,3.258,15.674,4.719c2.531,0.69,5.242,0.096,7.252-1.593c2.01-1.688,3.063-4.255,2.819-6.869
		c-2.046-21.915-6.643-43.645-13.663-64.587c-3.36-10.024-10.584-18.264-20.342-23.199c-32.529-16.454-52.736-49.249-52.736-85.586
		c0-26.377,10.48-50.968,29.509-69.246c19.019-18.267,44.051-27.741,70.473-26.674c48.718,1.965,89.066,41.611,91.856,90.258
		c2.186,38.113-18.405,73.906-52.458,91.189c-9.845,4.997-17.124,13.297-20.497,23.373c-6.998,20.904-11.582,42.596-13.625,64.473
		c-0.244,2.614,0.81,5.181,2.819,6.869s4.721,2.283,7.252,1.593c5.345-1.459,10.615-3.044,15.663-4.715
		c10.105-3.343,18.474-10.682,23.564-20.663c17.312-33.949,53.067-54.473,91.105-52.293c48.648,2.791,88.294,43.14,90.257,91.858
		C496.986,334.449,487.513,359.477,469.246,378.494z" />
            <path style="fill:#2D2B29;" d="M319.891,108.174c0.244,4.255,3.771,7.542,7.979,7.542c0.154,0,0.31-0.005,0.465-0.014
		c4.411-0.253,7.782-4.035,7.529-8.445c-2.325-40.524-35.939-73.55-76.526-75.187c-1.104-0.045-2.227-0.067-3.337-0.067
		c-4.418,0-8,3.582-8,8s3.582,8,8,8c0.892,0,1.791,0.018,2.692,0.054C291.151,49.366,318.032,75.772,319.891,108.174z" />
            <path style="fill:#2D2B29;"
                d="M403.461,232.07c-1.104-0.045-2.227-0.067-3.337-0.067c-4.418,0-8,3.582-8,8s3.582,8,8,8
		c0.892,0,1.791,0.018,2.691,0.054c32.458,1.31,59.34,27.716,61.199,60.117c0.244,4.255,3.771,7.542,7.979,7.542
		c0.154,0,0.31-0.005,0.465-0.014c4.411-0.253,7.782-4.035,7.529-8.445C477.664,266.733,444.048,233.707,403.461,232.07z" />
            <path style="fill:#2D2B29;" d="M111.999,232.003L111.999,232.003c-4.418,0-8,3.582-8,7.999c0,4.419,3.581,8.001,8,8.001
		c24.118,0.002,45.937,13.412,56.942,34.999c1.413,2.772,4.221,4.368,7.133,4.368c1.223,0,2.463-0.282,3.627-0.875
		c3.936-2.006,5.5-6.825,3.493-10.761C169.443,248.762,142.163,232.005,111.999,232.003z" />
            <path style="fill:#2D2B29;" d="M261.02,424.621c-4.077,1.703-6.001,6.389-4.298,10.465c5.892,14.103,12.851,27.903,20.683,41.019
		c1.498,2.509,4.152,3.899,6.876,3.899c1.396,0,2.81-0.365,4.094-1.133c3.793-2.265,5.032-7.177,2.767-10.97
		c-7.444-12.465-14.057-25.58-19.656-38.984C269.782,424.841,265.097,422.916,261.02,424.621z" />
        </g>
    </symbol>

    <symbol id="diamonds" viewBox="0 0 512 512">
        <path style=" fill:#FF6464;"
            d="M269.378,24.064c57.235,74.03,144.507,161.315,218.524,218.559c8.797,6.803,8.797,19.95,0,26.753
	c-74.017,57.244-161.289,144.529-218.524,218.559c-6.803,8.8-19.954,8.8-26.757,0C185.386,413.905,98.114,326.62,24.097,269.376
	c-8.797-6.803-8.797-19.95,0-26.753C98.115,185.38,185.386,98.095,242.622,24.064C249.425,15.265,262.575,15.265,269.378,24.064z" />
        <path style="fill:#D2555A;" d="M253.942,487.936c-26.397-74.03-66.647-161.315-100.785-218.559c-4.058-6.804-4.058-19.95,0-26.753
	c34.137-57.244,74.387-144.529,100.785-218.56c1.312-3.678,3.987-5.294,6.284-6.01c-6.247-1.616-13.231,0.354-17.604,6.01
	C185.386,98.095,98.115,185.38,24.098,242.624c-8.797,6.803-8.797,19.95,0,26.753c74.018,57.243,161.289,144.529,218.524,218.559
	c4.373,5.657,11.357,7.626,17.604,6.011C257.928,493.229,255.253,491.614,253.942,487.936z" />
        <g>
            <path style="fill:#2D2B29;" d="M508.706,249.531C426.102,189.455,322.544,85.898,262.47,3.295C260.964,1.225,258.56,0,256,0
		s-4.964,1.225-6.47,3.295C189.456,85.898,85.898,189.455,3.294,249.531C1.225,251.035,0,253.44,0,256s1.225,4.965,3.294,6.47
		c82.604,60.076,186.161,163.633,246.236,246.235c1.505,2.07,3.91,3.295,6.47,3.295s4.964-1.225,6.47-3.295
		c60.075-82.603,163.632-186.159,246.236-246.235c2.07-1.505,3.294-3.91,3.294-6.47S510.775,251.035,508.706,249.531z M256,490.539
		C196.51,411.246,100.754,315.491,21.461,256C100.754,196.51,196.51,100.754,256,21.462C315.49,100.754,411.246,196.51,490.539,256
		C411.246,315.491,315.49,411.246,256,490.539z" />
            <path style="fill:#2D2B29;" d="M262.226,55.47c-2.774-3.438-7.811-3.977-11.25-1.202c-3.438,2.774-3.977,7.811-1.202,11.25
		c27.573,34.17,60.977,70.952,96.602,106.367c1.561,1.551,3.601,2.326,5.64,2.326c2.055,0,4.11-0.787,5.673-2.359
		c3.115-3.134,3.1-8.199-0.033-11.313C322.438,125.526,289.438,89.194,262.226,55.47z" />
            <path style="fill:#2D2B29;" d="M106.628,205.875c-17.425,15.799-34.637,30.569-51.158,43.899c-3.439,2.775-3.977,7.811-1.203,11.25
		c1.581,1.959,3.896,2.977,6.231,2.977c1.764,0,3.54-0.58,5.019-1.774c16.759-13.523,34.207-28.494,51.858-44.499
		c3.273-2.967,3.521-8.027,0.553-11.3C114.96,203.154,109.901,202.907,106.628,205.875z" />
        </g>
    </symbol>

    <symbol id="hearts" viewBox="0 0 512 512">
        <path style="fill:#FF6464;"
            d="M11.73,171.732C11.73,97.321,71.704,37,145.685,37c36.668,0,69.867,14.841,94.045,38.857
	c8.964,8.905,23.576,8.905,32.541,0C296.448,51.841,329.647,37,366.315,37c73.98,0,133.954,60.321,133.954,134.732l0,0
	c0,139.153-179.184,265.739-230.618,299.21c-8.315,5.411-18.987,5.411-27.303,0C190.914,437.471,11.73,310.885,11.73,171.732" />
        <path style="fill:#D2555A;"
            d="M200.163,48.754C183.509,41.265,165.111,37,145.685,37C71.704,37,11.73,97.321,11.73,171.732
	c0,139.152,179.184,265.739,230.618,299.209C246.507,473.647,251.253,475,256,475C72.942,225.121,138.077,85.289,200.163,48.754z" />
        <g>
            <path style="fill:#2D2B29;" d="M368,28c-43.644,0-84.745,19.839-112,53.569C228.745,47.839,187.644,28,144,28
		C64.598,28,0,92.598,0,172c0,38.966,13.464,79.681,40.02,121.012c20.959,32.622,50.111,65.745,86.645,98.449
		c61.931,55.438,124.775,91.151,125.403,91.506c1.22,0.688,2.576,1.033,3.933,1.033c1.356,0,2.712-0.345,3.933-1.033
		c0.628-0.354,63.473-36.068,125.403-91.506c36.534-32.704,65.686-65.827,86.645-98.449C498.536,251.681,512,210.966,512,172
		C512,92.598,447.402,28,368,28z M374.881,379.346c-51.845,46.449-104.345,78.769-118.882,87.392
		c-14.512-8.604-66.837-40.805-118.663-87.198C81.983,329.99,16,253.762,16,172c0-70.579,57.42-128,128-128
		c42.059,0,81.466,20.735,105.414,55.468c1.493,2.166,3.956,3.458,6.586,3.458s5.093-1.293,6.586-3.458
		C286.534,64.735,325.941,44,368,44c70.58,0,128,57.421,128,128C496,253.684,430.135,329.841,374.881,379.346z" />
            <path style="fill:#2D2B29;" d="M144,60c-4.418,0-8,3.582-8,8s3.582,8,8,8c31.536,0,61.094,15.564,79.069,41.633
		c1.552,2.251,4.051,3.459,6.593,3.459c1.565,0,3.147-0.458,4.534-1.415c3.638-2.508,4.553-7.49,2.045-11.127
		C215.28,78.15,180.797,60,144,60z" />
            <path style="fill:#2D2B29;" d="M368,60c-4.418,0-8,3.582-8,8s3.582,8,8,8c51.942,0,94.963,42.282,95.901,94.253
		c0.079,4.369,3.645,7.855,7.996,7.855c0.049,0,0.098,0,0.147-0.001c4.417-0.08,7.934-3.726,7.854-8.143
		C478.804,109.33,428.607,60,368,60z" />
        </g>
    </symbol>

    <symbol id="spades" viewBox="0 0 512 512">
        <path style="fill:#515262;" d="M264.98,11.064c-5.551-3.386-12.412-3.386-17.963,0C204.511,36.995,25.591,154.132,25.591,288.613
	c0,69.894,56.57,126.553,126.353,126.553c22.84,0,44.247-6.086,62.722-16.714c5.297-3.047,11.491,2.341,9.413,8.13
	c-9.856,27.457-23.813,52.926-41.144,75.639c-6.619,8.674-0.262,21.254,10.579,21.254h126.307c10.848,0,17.189-12.583,10.566-21.263
	c-17.132-22.456-30.965-47.605-40.8-74.705c-2.089-5.757,4.017-11.153,9.332-8.193c18.108,10.087,38.938,15.852,61.135,15.852
	c69.783,0,126.353-56.659,126.353-126.553C486.407,154.132,307.487,36.995,264.98,11.064z" />
        <g>
            <path style="fill:#464655;" d="M203.818,403.94C61.859,325.336,195.197,89.594,257.242,8.696
		c-3.514-0.259-7.075,0.447-10.224,2.369C204.511,36.995,25.591,154.132,25.591,288.612c0,69.894,56.57,126.553,126.353,126.553
		C170.452,415.165,187.989,411.112,203.818,403.94z" />
            <path style="fill:#464655;" d="M232.183,484.992c8.171-67.92,7.815-87.245-13.087-87.245c3.665,0.746,6.481,4.661,4.983,8.833
		c-9.856,27.458-23.813,52.927-41.144,75.64c-6.619,8.674-0.262,21.254,10.579,21.254h47.767
		C231.746,503.475,231.367,491.777,232.183,484.992z" />
        </g>
        <g>
            <path style="fill:#2D2B29;" d="M458.432,177.339c-19.632-30.293-46.932-61.046-81.141-91.404
		C319.323,34.491,260.494,1.348,259.906,1.019c-2.427-1.358-5.387-1.358-7.813,0c-0.588,0.329-59.417,33.473-117.385,84.916
		c-34.209,30.358-61.509,61.111-81.141,91.404c-24.903,38.427-37.531,76.295-37.531,112.552C16.035,363.839,76.688,424,151.241,424
		c22.642,0,44.335-5.431,63.821-15.859c-12.658,33.402-31.943,64.312-56.514,90.371c-2.19,2.323-2.79,5.727-1.524,8.658
		s4.152,4.83,7.345,4.83h184.599c3.193,0,6.08-1.898,7.345-4.83s0.666-6.335-1.524-8.658
		c-24.354-25.829-43.533-56.458-56.196-89.543C317.684,418.852,338.814,424,360.757,424c74.553,0,135.206-60.161,135.206-134.109
		C495.963,253.633,483.335,215.766,458.432,177.339z M360.757,408c-26.242,0-51.164-8.345-72.07-24.133
		c-2.751-2.077-6.523-2.158-9.362-0.203c-2.838,1.957-4.104,5.512-3.141,8.822c10.982,37.751,29.87,73.208,55.028,103.514H182.126
		c25.457-30.661,44.477-66.569,55.407-104.818c0.952-3.331-0.349-6.896-3.222-8.833c-2.872-1.936-6.666-1.802-9.396,0.332
		C203.724,399.245,178.248,408,151.241,408c-65.73,0-119.206-52.983-119.206-118.109c0-75.506,61.491-145.977,113.076-191.797
		C193.297,55.29,242.095,25.434,256,17.244c13.877,8.17,62.501,37.91,110.671,80.658c51.683,45.866,113.292,116.405,113.292,191.989
		C479.963,355.017,426.487,408,360.757,408z" />
            <path style="fill:#2D2B29;" d="M261.508,424.255c-4.079,1.699-6.008,6.382-4.31,10.461c5.919,14.21,12.938,28.136,20.861,41.39
		c1.498,2.505,4.152,3.895,6.874,3.895c1.396,0,2.812-0.366,4.097-1.134c3.792-2.268,5.029-7.18,2.761-10.972
		c-7.53-12.594-14.2-25.827-19.823-39.33C270.27,424.486,265.585,422.557,261.508,424.255z" />
            <path style="fill:#2D2B29;" d="M288.58,56.903c-3.635-2.513-8.617-1.604-11.13,2.03c-2.513,3.633-1.604,8.616,2.03,11.129
		c21.435,14.823,53.411,38.759,84.021,68.61c1.556,1.517,3.571,2.272,5.585,2.272c2.081,0,4.16-0.807,5.728-2.415
		c3.084-3.163,3.021-8.228-0.142-11.313C343.265,96.589,310.519,72.074,288.58,56.903z" />
        </g>
    </symbol>

    <symbol id="goku" viewBox="0 0 679.78217 555.87129">
        <path
            d="M661.27527,543.36255c-22.96491-6.09815-45.92981-12.19635-70.71979-18.77924C641.533,495.988,690.76648,468.371,740,440.754q-.318-.77866-.63593-1.55725c-34.08172-2.05927-68.16345-4.11853-104.16387-6.29376,21.08642-18.99341,40.64044-36.60657,61.47772-55.37555-47.168,3.61285-92.14771,7.05816-137.3653,10.5216-14.25866-43.4-45.77917-66.89935-87.51452-78.106A257.2535,257.2535,0,0,0,452.56,204.90668c-9.53815-23.42682-23.57843-42.78827-47.44245-53.25141-11.686-5.12371-23.46484-10.26477-35.62683-14.02105-18.86236-5.82575-38.08825-10.47412-58.50366-15.98426,16.60693,51.26892,31.07587,101.22272,23.56152,155.70209-3.78637-2.17273-5.43743-6.02508-8.2196-8.70184-24.36047-23.43817-51.17261-43.34809-83.032-55.559-15.78675-6.05066-31.7732-9.82434-48.98786-5.45526-48.599,12.33441-91.53235,36.42529-134.09125,63.01391,1.24219,1.4325,1.52222,1.97577,1.96753,2.2334q4.42639,2.56119,8.91382,5.0166c41.83362,22.9942,80.87451,49.77777,113.233,85.26483,16.3133,17.89045,30.03882,37.59833,37.91352,61.29657-53.86383,9.65918-100.73938,34.59729-149.51685,61.59089,55.10468,12.14044,107.70618,23.66107,156.85382,50.80963-22.12726,12.76464-42.86688,24.72882-65.1958,37.6098,8.673.89709,15.35175,1.59711,22.03253,2.27746,31.94208,3.25275,63.96479,5.9,95.7743,10.14545,8.618,1.15009,17.20605,6.05353,20.42938,16.36762a30.27984,30.27984,0,0,0,7.27337,12.26434c15.4278,15.05261,30.98883,29.99945,47.08857,44.32513,20.59539,18.326,45.63025,21.77576,70.27368,13.21613,14.94671-5.19165,28.544-16.3587,40.60333-27.22168,13.76074-12.39545,25.04834-27.51935,37.66394-41.22443a11.34059,11.34059,0,0,1,7.19922-3.0036c17.60522-.84283,35.22455-1.41644,52.84387-1.92517,7.12238-.20569,14.25574-.03393,21.3841-.03393q.041-1.18589.082-2.37177c-12.01264-5.88293-24.02533-11.76593-37.76435-18.49445,38.66614-11.5592,75.38471-22.53619,112.10334-33.51312ZM507.57544,457.3512c1.00885,3.52325,3.3811,7.29583,2.79034,10.52655C507.819,481.8053,504.443,495.583,501.27557,509.3938c-.44494,1.94006-1.022,3.86175-1.75476,6.25421l-4.71759-7.55-34.73871,19.41443A456.336,456.336,0,0,0,507.57544,457.3512Zm-151.52667-6.93885v82.75208l-32.76966-18.314C323.42358,473.44757,330.44855,460.56793,356.04877,450.41235Zm175.025,106.37635c-5.63013,8.46392-12.56256,16.0625-18.93512,24.03-.52728.65931-1.19427,1.64307-1.85644,1.69391-12.7743.98066-12.07251,12.3183-16.053,20.26233a38.39475,38.39475,0,0,1-8.8609,11.32355c-17.4524,15.31891-33.942,32.212-53.19361,44.86389-17.72723,11.65015-38.91992,10.61762-57.54858-.29925-22.25159-13.04-40.62439-31.10993-57.04443-50.82392-4.82984-5.7987-6.59266-14.15191-10.16663-22.25372-25.09448-7.29846-47.68994-47.01025-29.00427-81.20337,7.31231,8.12054,14.449,16.046,23.485,26.08075-.71563-9.47308-1.24481-16.47754-1.94348-25.72607,3.00434,2.65509,5.83655,5.15808,8.59723,7.59771l-6.08533,9.739L391.53571,564l-1.74646-11.979-30.15662-16.85364c25.35455-38.66815,53.35382-74.88556,94.41644-101.76343,7.20893,34.95148-.07855,67.34473-4.70007,100.09711l-33.13825,18.52L414.46429,564l89.07142-41.92651-1.95331-3.126c5.51806-3.489,10.327-6.52942,16.50635-10.43652-3.76172,8.77825-6.66852,15.56164-9.57538,22.345q.55536.58831,1.11078,1.17645c7.97576-5.36933,15.95159-10.73859,25.73938-17.32776C535.53345,530.158,539.471,544.16486,531.07379,556.7887Z"
            transform="translate(-60.21783 -121.64996)" />
    </symbol>
</svg>